<svg xmlns="http://www.w3.org/2000/svg" xmlns:xlink="http://www.w3.org/1999/xlink" viewBox="0,0,256,256" width="144px" height="144px"><g fill="none" fill-rule="nonzero" stroke="none" stroke-width="1" stroke-linecap="butt" stroke-linejoin="miter" stroke-miterlimit="10" stroke-dasharray="" stroke-dashoffset="0" font-family="none" font-weight="none" font-size="none" text-anchor="none" style="mix-blend-mode: normal"><g transform="scale(5.33333,5.33333)"><path d="M44,24c0,11.044 -8.956,20 -20,20c-11.044,0 -20,-8.956 -20,-20c0,-11.044 8.956,-20 20,-20c11.044,0 20,8.956 20,20z" fill="#ffffff"></path><path d="M41,24c0,9.391 -7.609,17 -17,17c-9.391,0 -17,-7.609 -17,-17c0,-9.391 7.609,-17 17,-17c9.391,0 17,7.609 17,17z" fill="#0a84ff"></path><path d="M21.898,21.898l4.203,4.203l9.199,-13.402z" fill="#ff3d00"></path><path d="M24,24l11.301,-11.301l-9.199,13.402z" fill="#bf360c"></path><path d="M21.898,21.898l-9.199,13.402l13.402,-9.199z" fill="#ffffff"></path><path d="M24,24l-11.301,11.301l13.402,-9.199z" fill-opacity="0.56863" fill="#bcbcbc"></path><path d="M17.102,10.699c0.598,-0.301 1.199,-0.598 1.797,-0.801l1.203,2.703l-1.801,0.797zM36,25h2.898c0,-0.301 0.102,-0.699 0.102,-1c0,-0.301 0,-0.699 -0.102,-1h-2.898zM12.699,14.102l2.102,2.098l1.398,-1.398l-2.098,-2.102c-0.499,0.499 -0.902,0.902 -1.402,1.402zM25,9.102c-0.301,-0.102 -0.699,-0.102 -1,-0.102c-0.301,0 -0.699,0 -1,0.102v2.898h2zM30.398,10.5c-0.598,-0.301 -1.199,-0.5 -1.898,-0.699l-1.102,2.801l1.902,0.699zM12.5,20.5l0.699,-1.898l-2.699,-1.102c-0.301,0.602 -0.5,1.199 -0.699,1.898zM12,23h-2.898c-0.102,0.301 -0.102,0.699 -0.102,1c0,0.301 0,0.699 0.102,1h2.898zM35.5,27.5l-0.699,1.898l2.699,1.102c0.301,-0.602 0.5,-1.199 0.699,-1.898zM38.102,18.898c-0.203,-0.598 -0.5,-1.199 -0.801,-1.797l-2.699,1.199l0.797,1.801zM35.301,33.898l-2.102,-2.098l-1.398,1.398l2.098,2.102c0.499,-0.499 0.902,-0.902 1.402,-1.402zM13.398,29.699l-0.797,-1.801l-2.703,1.203c0.203,0.598 0.5,1.199 0.801,1.797zM29.699,34.602l-1.801,0.797l1.203,2.703c0.598,-0.203 1.199,-0.5 1.797,-0.801zM20.5,35.5l-1.898,-0.699l-1.102,2.699c0.602,0.301 1.199,0.5 1.898,0.699zM25,38.898v-2.898h-2v2.898c0.301,0 0.699,0.102 1,0.102c0.301,0 0.699,0 1,-0.102z" fill="#feffff"></path></g></g></svg>